# xmcd
#
# Track frame offsets:
#	150
#	12741
#	26562
#	37698
#	52387
#	67793
#	81944
#	104345
#	133754
#	147918
#	164904
#	176527
#
# Disc length: 2767 seconds
#
# Revision: 1
# Processed by: cddbd v1.5.2PL0 Copyright (c) Steve Scherf et al.
# Submitted via: audiograbber 1.83.01
#
DISCID=a90acd0c
DTITLE=Barclay James Harvest - The Best Of Barclay James Harvest
DYEAR=1983
DGENRE=Rock
TTITLE0=Ursula (The Swansea Song)
TTITLE1=Brother Thrush
TTITLE2=Poor Wages
TTITLE3=Child Of Man
TTITLE4=The Joker
TTITLE5=Rock And Roll Woman
TTITLE6=Good Love Child
TTITLE7=Mocking Bird
TTITLE8=Galadriel
TTITLE9=Medicine Man
TTITLE10=The Iron Maiden
TTITLE11=Moonwater
EXTD=
EXTT0=
EXTT1=
EXTT2=
EXTT3=
EXTT4=
EXTT5=
EXTT6=
EXTT7=
EXTT8=
EXTT9=
EXTT10=
EXTT11=
PLAYORDER=
